<?xml version="1.0" encoding="utf-8"?>
<!-- Generator: Adobe Illustrator 19.0.0, SVG Export Plug-In . SVG Version: 6.00 Build 0)  -->
<svg version="1.1" id="Layer_1" xmlns="http://www.w3.org/2000/svg" xmlns:xlink="http://www.w3.org/1999/xlink" x="0px" y="0px"
	 viewBox="-229.8 474.1 46.8 45.6" style="enable-background:new -229.8 474.1 46.8 45.6;" xml:space="preserve">
<style type="text/css">
	.st0{fill-rule:evenodd;clip-rule:evenodd;fill:#141231;}
</style>
<path id="XMLID_107_" class="st0" d="M-206.4,474.1c-12.9,0-23.4,10.5-23.4,23.4c0,10.3,6.7,19.1,16,22.2c1.2,0.2,1.6-0.5,1.6-1.1
	c0-0.6,0-2,0-4c-6.5,1.4-7.9-3.1-7.9-3.1c-1.1-2.7-2.6-3.4-2.6-3.4c-2.1-1.5,0.2-1.4,0.2-1.4c2.3,0.2,3.6,2.4,3.6,2.4
	c2.1,3.6,5.5,2.5,6.8,1.9c0.2-1.5,0.8-2.5,1.5-3.1c-5.2-0.6-10.7-2.6-10.7-11.6c0-2.6,0.9-4.6,2.4-6.3c-0.2-0.6-1-3,0.2-6.2
	c0,0,2-0.6,6.4,2.4c1.9-0.5,3.9-0.8,5.9-0.8c2,0,4,0.3,5.9,0.8c4.5-3,6.4-2.4,6.4-2.4c1.3,3.2,0.5,5.6,0.2,6.2
	c1.5,1.6,2.4,3.7,2.4,6.3c0,9-5.5,11-10.7,11.5c0.8,0.7,1.6,2.1,1.6,4.3c0,3.1,0,5.6,0,6.4c0,0.6,0.4,1.4,1.6,1.1
	c9.3-3.1,16-11.9,16-22.2C-183,484.5-193.5,474.1-206.4,474.1z"/>
</svg>
