<?xml version="1.0" encoding="utf-8"?>
<!-- Generator: Adobe Illustrator 19.0.0, SVG Export Plug-In . SVG Version: 6.00 Build 0)  -->
<svg version="1.1" id="Layer_1" xmlns="http://www.w3.org/2000/svg" xmlns:xlink="http://www.w3.org/1999/xlink" x="0px" y="0px"
	 viewBox="-224.1 477.9 44.9 34.4" style="enable-background:new -224.1 477.9 44.9 34.4;" xml:space="preserve">
<style type="text/css">
	.st0{fill:#141231;}
</style>
<g id="XMLID_95_">
	<path id="XMLID_120_" class="st0" d="M-220.8,511.8c-1.5,0-2.7-1.2-2.7-2.7v-27.8c0-1.5,1.2-1.8,2.7-1.8c1.5,0,2.7,0.3,2.7,1.8
		v30.5H-220.8L-220.8,511.8z"/>
	<path id="XMLID_117_" class="st0" d="M-220.8,479.9c2,0,2.3,0.6,2.3,1.4v30.1h-2.3c-1.3,0-2.3-1.1-2.3-2.3v-27.8
		C-223.1,480.4-222.8,479.9-220.8,479.9L-220.8,479.9z M-220.8,479.5c-1.5,0-2.7,0.3-2.7,1.8V509c0,1.5,1.2,2.7,2.7,2.7h2.7v-30.5
		C-218.1,479.8-219.3,479.5-220.8,479.5L-220.8,479.5L-220.8,479.5z"/>
	<path id="XMLID_116_" class="st0" d="M-182.4,511.8h-2.7v-30.6c0-1.5,1.2-1.7,2.7-1.7c1.5,0,2.7,0.2,2.7,1.7v27.9
		C-179.7,510.6-180.9,511.8-182.4,511.8L-182.4,511.8z"/>
	<path id="XMLID_115_" class="st0" d="M-201.6,498.6l-20.7-15c-1.2-0.9-1.6-2.6-0.7-3.8c0.9-1.2,2.7-1.5,3.9-0.6l17.5,12.7L-184,479
		c1.2-0.9,2.9-0.6,3.8,0.6c0.9,1.2,0.6,2.9-0.6,3.8L-201.6,498.6L-201.6,498.6z"/>
	<path id="XMLID_112_" class="st0" d="M-182.4,478.8L-182.4,478.8c0.7,0,1.4,0.4,1.9,1c0.7,1.1,0.5,2.5-0.5,3.3l-20.6,15l-20.5-14.9
		c-1.1-0.8-1.3-2.3-0.6-3.3c0.4-0.6,1.2-1,2-1c0.5,0,1,0.2,1.4,0.5l17.5,12.7l0.2,0.2l0.2-0.2l17.6-12.9
		C-183.4,479-182.9,478.8-182.4,478.8L-182.4,478.8z M-182.4,478.4c-0.5,0-1.1,0.2-1.6,0.5l-17.6,12.9l-17.5-12.7
		c-0.5-0.4-1.1-0.5-1.6-0.5c-0.9,0-1.7,0.4-2.3,1.1c-0.9,1.2-0.5,2.9,0.7,3.8l20.7,15.1l20.8-15.2c1.2-0.9,1.5-2.6,0.6-3.8
		C-180.7,478.8-181.6,478.4-182.4,478.4L-182.4,478.4L-182.4,478.4z"/>
	<path id="XMLID_109_" class="st0" d="M-181.8,512.3h-39.8c-1.4,0-2.6-1.2-2.6-2.6v-29.2c0-1.4,1.2-2.6,2.6-2.6h39.8
		c1.4,0,2.6,1.2,2.6,2.6v29.2C-179.2,511.1-180.3,512.3-181.8,512.3z M-221.5,479c-0.9,0-1.6,0.7-1.6,1.6v29.2
		c0,0.9,0.7,1.6,1.6,1.6h39.8c0.9,0,1.6-0.7,1.6-1.6v-29.2c0-0.9-0.7-1.6-1.6-1.6H-221.5z"/>
</g>
</svg>
