<?xml version="1.0" encoding="utf-8"?>
<!-- Generator: Adobe Illustrator 19.0.0, SVG Export Plug-In . SVG Version: 6.00 Build 0)  -->
<svg version="1.1" id="Layer_1" xmlns="http://www.w3.org/2000/svg" xmlns:xlink="http://www.w3.org/1999/xlink" x="0px" y="0px"
	 viewBox="-220.4 475.5 38.5 38.5" style="enable-background:new -220.4 475.5 38.5 38.5;" xml:space="preserve">
<style type="text/css">
	.st0{fill:#141231;}
</style>
<g id="XMLID_97_">
	<path id="XMLID_98_" class="st0" d="M-201.2,479c5.1,0,5.8,0,7.8,0.1c1.9,0.1,2.9,0.4,3.6,0.7c0.9,0.3,1.5,0.8,2.2,1.4
		c0.7,0.7,1.1,1.3,1.4,2.2c0.3,0.7,0.6,1.7,0.7,3.6c0.1,2,0.1,2.6,0.1,7.8c0,5.1,0,5.8-0.1,7.8c-0.1,1.9-0.4,2.9-0.7,3.6
		c-0.3,0.9-0.8,1.5-1.4,2.2c-0.7,0.7-1.3,1.1-2.2,1.4c-0.7,0.3-1.7,0.6-3.6,0.7c-2,0.1-2.6,0.1-7.8,0.1c-5.1,0-5.8,0-7.8-0.1
		c-1.9-0.1-2.9-0.4-3.6-0.7c-0.9-0.3-1.5-0.8-2.2-1.4c-0.7-0.7-1.1-1.3-1.4-2.2c-0.3-0.7-0.6-1.7-0.7-3.6c-0.1-2-0.1-2.6-0.1-7.8
		c0-5.1,0-5.8,0.1-7.8c0.1-1.9,0.4-2.9,0.7-3.6c0.3-0.9,0.8-1.5,1.4-2.2c0.7-0.7,1.3-1.1,2.2-1.4c0.7-0.3,1.7-0.6,3.6-0.7
		C-206.9,479-206.3,479-201.2,479 M-201.2,475.5c-5.2,0-5.9,0-7.9,0.1c-2.1,0.1-3.5,0.4-4.7,0.9c-1.3,0.5-2.3,1.2-3.4,2.2
		c-1.1,1.1-1.7,2.1-2.2,3.4c-0.5,1.2-0.8,2.6-0.9,4.7c-0.1,2.1-0.1,2.7-0.1,7.9c0,5.2,0,5.9,0.1,7.9c0.1,2.1,0.4,3.5,0.9,4.7
		c0.5,1.3,1.2,2.3,2.2,3.4c1.1,1.1,2.1,1.7,3.4,2.2c1.2,0.5,2.6,0.8,4.7,0.9c2.1,0.1,2.7,0.1,7.9,0.1s5.9,0,7.9-0.1
		c2.1-0.1,3.5-0.4,4.7-0.9c1.3-0.5,2.3-1.2,3.4-2.2c1.1-1.1,1.7-2.1,2.2-3.4c0.5-1.2,0.8-2.6,0.9-4.7c0.1-2.1,0.1-2.7,0.1-7.9
		c0-5.2,0-5.9-0.1-7.9c-0.1-2.1-0.4-3.5-0.9-4.7c-0.5-1.3-1.2-2.3-2.2-3.4c-1.1-1.1-2.1-1.7-3.4-2.2c-1.2-0.5-2.6-0.8-4.7-0.9
		C-195.3,475.5-195.9,475.5-201.2,475.5z M-201.2,484.9c-5.5,0-9.9,4.4-9.9,9.9c0,5.5,4.4,9.9,9.9,9.9s9.9-4.4,9.9-9.9
		C-191.3,489.3-195.7,484.9-201.2,484.9z M-201.2,501.2c-3.5,0-6.4-2.9-6.4-6.4c0-3.5,2.9-6.4,6.4-6.4s6.4,2.9,6.4,6.4
		C-194.8,498.3-197.6,501.2-201.2,501.2z M-188.6,484.5c0,1.3-1,2.3-2.3,2.3c-1.3,0-2.3-1-2.3-2.3c0-1.3,1-2.3,2.3-2.3
		C-189.6,482.2-188.6,483.2-188.6,484.5z"/>
</g>
</svg>
