<?xml version="1.0" encoding="utf-8"?>
<!-- Generator: Adobe Illustrator 19.0.0, SVG Export Plug-In . SVG Version: 6.00 Build 0)  -->
<svg version="1.1" id="Layer_1" xmlns="http://www.w3.org/2000/svg" xmlns:xlink="http://www.w3.org/1999/xlink" x="0px" y="0px"
	 viewBox="-226.4 477 39.6 39.6" style="enable-background:new -226.4 477 39.6 39.6;" xml:space="preserve">
<style type="text/css">
	.st0{fill-rule:evenodd;clip-rule:evenodd;fill:#141231;}
</style>
<g id="XMLID_89_">
	<path id="XMLID_94_" class="st0" d="M-211.7,486.5c0,1.5-1.1,2.7-3,2.7h0c-1.8,0-2.9-1.2-2.9-2.7c0-1.6,1.2-2.7,3-2.7
		C-212.9,483.7-211.8,484.9-211.7,486.5z"/>
	<g id="XMLID_87_">
		<path id="XMLID_100_" class="st0" d="M-194.6,477h-24.1c-4.3,0-7.8,3.5-7.8,7.8v24.1c0,4.3,3.5,7.8,7.8,7.8h24.1
			c4.3,0,7.8-3.5,7.8-7.8v-24.1C-186.8,480.5-190.3,477-194.6,477z M-188.3,508.9c0,3.5-2.8,6.3-6.3,6.3h-24.1
			c-3.5,0-6.3-2.8-6.3-6.3v-24.1c0-3.5,2.8-6.3,6.3-6.3h24.1c3.5,0,6.3,2.8,6.3,6.3V508.9z"/>
		<rect id="XMLID_91_" x="-217.4" y="491.4" class="st0" width="5.3" height="15.9"/>
		<path id="XMLID_90_" class="st0" d="M-193,498.2v9.1h-5.3v-8.5c0-2.1-0.8-3.6-2.7-3.6c-1.5,0-2.3,1-2.7,1.9
			c-0.1,0.3-0.2,0.8-0.2,1.3v8.9h-5.3c0,0,0.1-14.4,0-15.9h5.3v2.3l0,0.1h0v-0.1c0.7-1.1,2-2.6,4.8-2.6
			C-195.6,491-193,493.3-193,498.2z"/>
	</g>
</g>
</svg>
