<?xml version="1.0" encoding="iso-8859-1"?>
<!-- Generator: Adobe Illustrator 19.0.0, SVG Export Plug-In . SVG Version: 6.00 Build 0)  -->
<svg version="1.2" baseProfile="tiny" id="Layer_1" xmlns="http://www.w3.org/2000/svg" xmlns:xlink="http://www.w3.org/1999/xlink"
	 x="0px" y="0px" viewBox="0 0 185.867 118.44" xml:space="preserve">
<path id="XMLID_64_" fill="#FFFFFF" d="M41.772,33.863l-0.161-0.986c0.065-0.011,0.138-0.02,0.211-0.027
	c0.06-0.007,0.119-0.013,0.172-0.022c0.316-0.039,0.615-0.102,0.916-0.164c0.527-0.109,1.073-0.223,1.636-0.223h2.13v1h-2.13
	c-0.461,0-0.933,0.098-1.433,0.201c-0.328,0.068-0.653,0.135-0.973,0.175c-0.048,0.009-0.128,0.019-0.207,0.027L41.772,33.863z"/>
<path id="XMLID_62_" fill="#FFFFFF" d="M79.677,32.94"/>
<path id="XMLID_61_" fill="#FFFFFF" d="M113.677,32.94"/>
<path id="XMLID_58_" fill="#FFFFFF" d="M144.677,32.94"/>
<polygon id="XMLID_52_" fill="#FFFFFF" points="164.677,52.44 165.677,52.351 165.677,52.391 "/>
<path id="XMLID_55_" fill="#FFFFFF" d="M145.287,118.44H44.547c-11.508,0-20.87-9.053-20.87-20.18V82.44h1v15.82
	c0,10.576,8.914,19.18,19.87,19.18h100.74c10.873,0,19.39-8.425,19.39-19.18V80.44h1v17.82
	C165.677,109.576,156.721,118.44,145.287,118.44z"/>
<path id="XMLID_54_" fill="#FFFFFF" d="M138.677,32.94"/>
<path id="XMLID_53_" fill="#FFFFFF" d="M106.677,32.94"/>
<rect id="XMLID_47_" x="85.677" y="32.44" fill="#FFFFFF" width="14" height="1"/>
<g id="wheel1">
	<path id="XMLID_46_" fill="#FFFFFF" d="M43.902,87.809C19.694,87.809,0,68.114,0,43.906C0,19.699,19.694,0.005,43.902,0.005
		s43.902,19.694,43.902,43.901C87.804,68.114,68.109,87.809,43.902,87.809z M43.902,1.005C20.246,1.005,1,20.25,1,43.906
		s19.246,42.902,42.902,42.902s42.902-19.246,42.902-42.902S67.558,1.005,43.902,1.005z"/>
	<path id="XMLID_45_" fill="#FFFFFF" d="M52.091,80.304H35.713c-1.858,0-3.522-0.961-4.451-2.569c-0.929-1.609-0.929-3.53,0-5.14
		l8.189-14.184c0.929-1.609,2.593-2.569,4.451-2.569s3.521,0.96,4.451,2.569l8.189,14.184c0.929,1.609,0.929,3.53,0,5.14
		C55.613,79.343,53.949,80.304,52.091,80.304z M31.695,72.845l0.433,0.25c-0.749,1.296-0.749,2.844,0,4.14s2.088,2.069,3.585,2.069
		h16.378c1.497,0,2.837-0.773,3.585-2.069s0.748-2.844,0-4.14l-8.189-14.184c-0.748-1.296-2.088-2.069-3.584-2.069
		s-2.836,0.773-3.584,2.069l-8.189,14.184L31.695,72.845z"/>
	<path id="XMLID_44_" fill="#FFFFFF" d="M43.902,34.409c-1.858,0-3.521-0.96-4.451-2.569l-8.189-14.184
		c-0.929-1.608-0.929-3.53,0-5.139c0.929-1.609,2.593-2.57,4.451-2.57h16.378c1.858,0,3.522,0.961,4.451,2.57
		c0.929,1.608,0.929,3.53,0,5.139L48.353,31.84C47.423,33.449,45.76,34.409,43.902,34.409z M35.713,10.947
		c-1.497,0-2.837,0.773-3.585,2.07c-0.748,1.296-0.748,2.843,0,4.139l8.189,14.184c0.748,1.296,2.088,2.069,3.584,2.069
		s2.836-0.773,3.584-2.069l8.189-14.184c0.749-1.296,0.749-2.843,0-4.139c-0.748-1.297-2.088-2.07-3.585-2.07H35.713z"/>
	<path id="XMLID_43_" fill="#FFFFFF" d="M76.858,57.758c-0.883,0-1.766-0.232-2.57-0.697l-14.184-8.189
		c-1.609-0.929-2.569-2.592-2.569-4.45s0.96-3.521,2.569-4.45l14.184-8.189c1.609-0.93,3.531-0.93,5.141,0
		c1.608,0.929,2.568,2.593,2.568,4.45v16.378c0,1.858-0.96,3.522-2.569,4.451C78.624,57.525,77.74,57.758,76.858,57.758z
		 M74.788,56.195c1.297,0.746,2.845,0.747,4.14-0.001c1.296-0.748,2.069-2.088,2.069-3.585V36.231c0-1.496-0.773-2.836-2.068-3.584
		c-1.297-0.748-2.844-0.749-4.141-0.001l-14.184,8.189c-1.296,0.748-2.069,2.089-2.069,3.585s0.773,2.837,2.069,3.585L74.788,56.195
		z"/>
	<path id="XMLID_42_" fill="#FFFFFF" d="M12.081,57.758c-0.883,0-1.766-0.232-2.57-0.697c-1.609-0.929-2.569-2.593-2.569-4.451
		V36.231c0-1.857,0.96-3.521,2.569-4.45c1.608-0.93,3.529-0.931,5.14,0l14.184,8.189c1.609,0.929,2.57,2.592,2.57,4.45
		s-0.96,3.521-2.57,4.45L14.65,57.061C13.846,57.525,12.963,57.758,12.081,57.758z M12.081,32.086c-0.711,0-1.422,0.188-2.07,0.562
		c-1.296,0.748-2.069,2.088-2.069,3.584v16.378c0,1.497,0.773,2.837,2.069,3.585c1.296,0.747,2.843,0.749,4.14,0.001l14.184-8.189
		c1.296-0.748,2.07-2.089,2.07-3.585s-0.773-2.837-2.07-3.585L14.15,32.646C13.502,32.272,12.791,32.086,12.081,32.086z"/>
	<path id="XMLID_39_" fill="#FFFFFF" d="M42.243,50.95l-4.238-5.489l3.911-5.727l6.656,1.949l0.202,6.933L42.243,50.95z
		 M39.24,45.426l3.351,4.339l5.162-1.846l-0.16-5.479l-5.261-1.541L39.24,45.426z"/>
</g>
<g id="wheel2">
	<path id="XMLID_68_" fill="#FFFFFF" d="M141.967,87.811c-24.212,0-43.91-19.693-43.91-43.9c0-24.212,19.698-43.91,43.91-43.91
		c24.207,0,43.9,19.698,43.9,43.91c0,15.126-7.635,28.992-20.423,37.093C158.431,85.456,150.312,87.811,141.967,87.811z M141.967,1
		c-23.661,0-42.91,19.249-42.91,42.91c0,23.655,19.249,42.9,42.91,42.9c8.155,0,16.088-2.301,22.942-6.652
		c12.497-7.916,19.958-21.467,19.958-36.248C184.867,20.249,165.622,1,141.967,1z M109.958,57.761c-0.918,0-1.842-0.245-2.688-0.733
		c-1.624-0.939-2.594-2.591-2.594-4.417V36.23c0-1.213,0.619-2.439,1.839-3.646l0.703,0.711c-1.023,1.012-1.542,1.998-1.542,2.935
		v16.38c0,1.465,0.783,2.793,2.095,3.551c1.354,0.784,2.954,0.799,4.275,0.036l14.352-8.191c1.292-0.748,2.065-2.089,2.065-3.585
		c0-1.497-0.773-2.838-2.068-3.588l-12.929-7.46l0.5-0.865l12.93,7.46c1.607,0.931,2.567,2.596,2.567,4.453
		c0,1.856-0.96,3.521-2.566,4.452l-14.353,8.192C111.739,57.529,110.852,57.761,109.958,57.761z"/>
	<path id="XMLID_38_" fill="#FFFFFF" d="M150.151,80.304h-16.379c-1.857,0-3.521-0.96-4.45-2.568c-0.929-1.609-0.93-3.531,0-5.141
		l8.189-14.184c0.929-1.609,2.592-2.569,4.45-2.569s3.521,0.96,4.45,2.569l8.189,14.184c0.93,1.609,0.929,3.531,0,5.141
		C153.673,79.344,152.009,80.304,150.151,80.304z M130.188,73.095c-0.748,1.297-0.748,2.845,0.001,4.141
		c0.748,1.295,2.088,2.068,3.584,2.068h16.379c1.496,0,2.836-0.773,3.584-2.068c0.749-1.296,0.749-2.844,0.001-4.141l-8.189-14.184
		c-0.748-1.296-2.089-2.069-3.585-2.069s-2.837,0.773-3.585,2.069L130.188,73.095z"/>
	<path id="XMLID_37_" fill="#FFFFFF" d="M141.962,34.409c-1.858,0-3.521-0.96-4.45-2.569l-8.189-14.184
		c-0.93-1.609-0.929-3.53,0-5.14s2.593-2.569,4.45-2.569h16.379c1.857,0,3.521,0.96,4.45,2.569s0.93,3.53,0,5.14l-8.189,14.184
		C145.483,33.449,143.82,34.409,141.962,34.409z M133.772,10.947c-1.496,0-2.836,0.773-3.584,2.069
		c-0.749,1.296-0.749,2.844-0.001,4.14l8.189,14.184c0.748,1.296,2.089,2.069,3.585,2.069s2.837-0.773,3.585-2.069l8.189-14.184
		c0.748-1.296,0.748-2.844-0.001-4.14c-0.748-1.296-2.088-2.069-3.584-2.069H133.772z"/>
	<path id="XMLID_50_" fill="#FFFFFF" d="M174.918,57.758c-0.883,0-1.765-0.232-2.569-0.697l-14.184-8.189
		c-1.609-0.929-2.569-2.592-2.569-4.45s0.96-3.521,2.569-4.45l14.184-8.189c1.611-0.93,3.532-0.929,5.14,0
		c1.609,0.929,2.569,2.593,2.569,4.45v16.378c0,1.858-0.961,3.522-2.569,4.451C176.684,57.525,175.801,57.758,174.918,57.758z
		 M172.849,56.195c1.295,0.748,2.843,0.747,4.14-0.001c1.296-0.748,2.069-2.088,2.069-3.585V36.231c0-1.496-0.773-2.836-2.069-3.584
		c-1.297-0.748-2.843-0.749-4.14-0.001l-14.184,8.189c-1.296,0.748-2.069,2.089-2.069,3.585s0.773,2.837,2.069,3.585L172.849,56.195
		z"/>
	<path id="XMLID_36_" fill="#FFFFFF" d="M113.466,33.373l-1.26-0.73c-1.884-1.087-3.863-0.455-4.988,0.654l-0.701-0.713
		c1.675-1.652,4.163-1.977,6.19-0.808l1.261,0.731L113.466,33.373z"/>
	<path id="XMLID_40_" fill="#FFFFFF" d="M140.303,50.95l-4.238-5.489l3.912-5.727l6.655,1.949l0.202,6.933L140.303,50.95z
		 M137.301,45.426l3.35,4.339l5.162-1.846l-0.159-5.479l-5.261-1.541L137.301,45.426z"/>
</g>
<path id="XMLID_33_" fill="none" stroke="#FFFFFF" stroke-miterlimit="10" d="M76.957,111.318L76.957,111.318
	c4.66,0,8.437-3.777,8.437-8.437v0c0-4.66-3.777-8.437-8.437-8.437h0c-4.66,0-8.437,3.777-8.437,8.437v0
	C68.519,107.54,72.297,111.318,76.957,111.318z"/>
<path id="XMLID_32_" fill="none" stroke="#FFFFFF" stroke-miterlimit="10" d="M93.831,111.318L93.831,111.318
	c4.66,0,8.437-3.777,8.437-8.437v0c0-4.66-3.777-8.437-8.437-8.437h0c-4.66,0-8.437,3.777-8.437,8.437v0
	C85.394,107.54,89.171,111.318,93.831,111.318z"/>
<path id="XMLID_31_" fill="none" stroke="#FFFFFF" stroke-miterlimit="10" d="M110.706,111.318L110.706,111.318
	c4.66,0,8.437-3.777,8.437-8.437v0c0-4.66-3.777-8.437-8.437-8.437h0c-4.66,0-8.437,3.777-8.437,8.437v0
	C102.268,107.54,106.046,111.318,110.706,111.318z"/>
<rect id="XMLID_29_" x="74.57" y="100.56" fill="#FFFFFF" width="4.774" height="4.774"/>
<polygon id="PLAY" fill="#69BC45" points="90.95,98.637 97.771,102.575 90.95,106.513 "/>
<rect id="XMLID_8_" x="109.197" y="100.56" fill="#FFFFFF" width="0.972" height="4.774"/>
<rect id="XMLID_30_" x="111.717" y="100.56" fill="#FFFFFF" width="0.972" height="4.774"/>
</svg>
